Coordinates
version=1
nRows=6
nColumns=36
inDegrees=yes

Units are S.I. units (second, meters, Newtons, ...)
If the header above contains a line with 'inDegrees', this indicates whether rotational values are in degrees (yes) or radians (no).

endheader
time	pelvis_tilt	pelvis_list	pelvis_rotation	pelvis_tx	pelvis_ty	pelvis_tz	hip_flexion_r	hip_adduction_r	hip_rotation_r	knee_angle_r	knee_angle_r_beta	ankle_angle_r	subtalar_angle_r	mtp_angle_r	hip_flexion_l	hip_adduction_l	hip_rotation_l	knee_angle_l	knee_angle_l_beta	ankle_angle_l	subtalar_angle_l	mtp_angle_l	lumbar_extension	lumbar_bending	lumbar_rotation	arm_flex_r	arm_add_r	arm_rot_r	elbow_flex_r	pro_sup_r	arm_flex_l	arm_add_l	arm_rot_l	elbow_flex_l	pro_sup_l
     15.06666670	     -7.60805982	      3.57945149	     -5.80975917	      0.74606834	      0.81428933	      0.70063356	     24.65601758	     -2.27265246	      2.87978699	     64.41595079	      1.12427043	     -5.64023747	    -14.96249283	     -7.49999987	     16.52779340	      4.61648613	     -1.69992384	     14.43874959	      0.25200372	      8.24048380	     -5.65154723	     -7.49999987	     11.66320355	     -3.33258053	      0.78991622	     -0.31685394	     -8.97566244	      7.97937315	     13.47696993	     97.55157135	      2.05720082	    -10.28432353	      6.86368631	     10.35911127	     96.14096008
     15.08333330	     -8.21653630	      3.15066886	     -5.44265532	      0.73912805	      0.81537516	      0.69632184	     27.78708137	     -1.76227755	      2.48920672	     63.98421038	      1.11673514	     -1.03516189	    -14.05333223	     -7.49999987	     15.73940591	      4.38191789	     -1.29559028	     13.93869506	      0.24327612	      8.81842460	     -5.37194949	     -7.49999987	     12.11570616	     -2.60279595	     -0.39822412	     -1.14235635	     -9.35083388	      7.71048574	     13.11519445	     97.37422876	      2.10745941	    -10.27588821	      6.80648087	     11.08056408	     95.73980197
     15.10000000	     -9.15907715	      2.67389961	     -5.04653053	      0.73472831	      0.81626369	      0.69388963	     30.74375479	     -1.24679634	      1.93463358	     61.76515004	      1.07800523	      3.44588530	    -13.26269273	     -7.49999987	     15.43416852	      4.04096626	     -0.99238065	     13.60149534	      0.23739088	      9.44621325	     -4.67168570	     -7.49999987	     13.07463952	     -1.87832417	     -1.60244481	     -1.65326811	     -9.67179204	      7.73503475	     12.34736866	     98.29191039	      2.17540904	    -10.36291204	      8.02102942	     11.48152313	     94.87932780
     15.11666670	     -9.84729355	      2.09105543	     -4.57399441	      0.73132611	      0.81667791	      0.69286797	     32.82399861	     -0.75553952	      1.30933914	     58.03316072	      1.01286973	      6.54683556	    -12.68624487	     -7.49999987	     14.87434685	      3.63570795	     -0.46358958	     13.26100964	      0.23144828	     10.15346141	     -3.82431828	     -7.49999987	     13.62813713	     -1.06524844	     -2.76202638	     -2.23338734	    -10.09492027	      7.23277465	     12.32394271	     97.35423426	      2.40224456	    -10.35758555	      7.92690043	     11.96526534	     93.96192002
     15.13333330	    -10.45039762	      1.68802973	     -4.16867345	      0.72768366	      0.81475993	      0.69238710	     34.42812392	     -0.44913344	      0.90900661	     53.62174888	      0.93587607	      7.93865734	    -12.38166086	     -7.49999987	     14.25685086	      3.38586465	     -0.01117140	     12.76888973	      0.22285917	     10.57949985	     -3.08256149	     -7.49999987	     14.13932655	     -0.51685575	     -3.57060245	     -2.85747269	    -10.53180656	      6.99931577	     12.51324826	     97.00345040	      2.72360611	    -10.50623596	      7.95030821	     12.64560020	     93.66033415
     15.15000000	    -11.05736060	      1.33230859	     -3.72249862	      0.72522814	      0.81105878	      0.69153350	     35.68831110	     -0.29421443	      0.50071551	     48.97239015	      0.85472945	      8.17625624	    -11.95860083	     -7.49999987	     13.86346051	      3.16957607	      0.34205321	     12.45806932	      0.21743433	     11.42909508	     -1.99676307	     -7.49999987	     14.71286113	     -0.03918560	     -4.62881513	     -3.09411263	    -10.88715843	      6.61357801	     12.36330771	     96.81845244	      3.05938754	    -10.66168397	      8.10599651	     12.91787531	     93.55514665
